<?xml version="1.0" encoding="UTF-8" standalone="no"?>
<!-- Created with Inkscape (http://www.inkscape.org/) -->

<svg
   xmlns:dc="http://purl.org/dc/elements/1.1/"
   xmlns:cc="http://creativecommons.org/ns#"
   xmlns:rdf="http://www.w3.org/1999/02/22-rdf-syntax-ns#"
   xmlns:svg="http://www.w3.org/2000/svg"
   xmlns="http://www.w3.org/2000/svg"
   xmlns:sodipodi="http://sodipodi.sourceforge.net/DTD/sodipodi-0.dtd"
   xmlns:inkscape="http://www.inkscape.org/namespaces/inkscape"
   width="744.09448"
   height="744.09003"
   id="svg2"
   version="1.1"
   inkscape:version="0.48.2 r9819"
   sodipodi:docname="inizialeF.svg"
   inkscape:export-filename="C:\Users\Valentina\Desktop\Pulire\inizialeF.png"
   inkscape:export-xdpi="98.537445"
   inkscape:export-ydpi="98.537445">
  <defs
     id="defs4" />
  <sodipodi:namedview
     id="base"
     pagecolor="#ffffff"
     bordercolor="#666666"
     borderopacity="1.0"
     inkscape:pageopacity="0.0"
     inkscape:pageshadow="2"
     inkscape:zoom="0.35"
     inkscape:cx="438.95108"
     inkscape:cy="559.22303"
     inkscape:document-units="px"
     inkscape:current-layer="layer1"
     showgrid="false"
     inkscape:window-width="1280"
     inkscape:window-height="657"
     inkscape:window-x="-8"
     inkscape:window-y="-8"
     inkscape:window-maximized="1" />
  <metadata
     id="metadata7">
    <rdf:RDF>
      <cc:Work
         rdf:about="">
        <dc:format>image/svg+xml</dc:format>
        <dc:type
           rdf:resource="http://purl.org/dc/dcmitype/StillImage" />
        <dc:title></dc:title>
      </cc:Work>
    </rdf:RDF>
  </metadata>
  <g
     inkscape:label="Livello 1"
     inkscape:groupmode="layer"
     id="layer1"
     transform="translate(0,-308.27217)">
    <g
       transform="matrix(6.6393439,0,0,6.6393439,-1165.8007,-2941.9879)"
       id="g4339">
      <path
         inkscape:connector-curvature="0"
         id="path4289"
         d="m 181.26246,581.28931 c -2.4797,-2.54579 -1.48256,-5.8882 2.21788,-7.43435 4.44263,-1.85625 9.2914,-1.80932 18.03212,0.1745 13.25294,3.00794 11.75071,3.34002 19.27689,-4.26126 3.73693,-3.77421 8.52338,-9.50011 10.63656,-12.72421 4.45659,-6.79948 4.03899,-7.59846 -3.98414,-7.62269 -6.58125,-0.0199 -15.04611,-4.19746 -18.26734,-9.01531 -1.91183,-2.85943 -2.26285,-4.46265 -1.91795,-8.75984 0.544,-6.77793 4.35274,-11.65943 12.28111,-15.74016 5.34103,-2.74903 6.67131,-3 15.90175,-3 10.38348,0 16.05587,0.90988 15.11934,2.42521 -0.30187,0.48844 -2.17422,0.48606 -4.29089,-0.005 -11.89918,-2.76314 -24.01709,-0.0909 -31.23384,6.88767 -12.02314,11.62632 -4.52709,24.17104 14.95123,25.02107 l 7.52728,0.32848 5,-6.69303 c 5.96551,-7.98548 17.75957,-19.25394 23.94753,-22.88032 2.44745,-1.4343 6.45169,-2.8822 8.89832,-3.21755 4.00983,-0.5496 4.61531,-0.35498 6.14137,1.97409 1.44834,2.21044 1.51634,3.11902 0.47059,6.28768 -2.80893,8.51115 -18.58043,20.7777 -31.66344,24.62679 -6.91112,2.03329 -7.45614,2.41548 -10.9514,7.67972 -4.85958,7.31906 -12.70391,15.55407 -18.63691,19.56512 l -4.79394,3.24097 4.48676,1.12978 c 2.46772,0.62092 5.55582,1.12932 6.86244,1.12932 4.98693,0 12.48308,-3.15718 18.7371,-7.89157 3.57413,-2.70567 6.91974,-4.65901 7.43468,-4.34076 1.47746,0.91312 -7.31326,7.98871 -14.13803,11.37959 -6.1224,3.04191 -6.34849,3.07417 -17,2.42539 -13.07186,-0.7962 -13.83042,-0.79679 -28.29507,-0.022 -8.70882,0.46647 -11.80339,0.30451 -12.75,-0.66733 z"
         style="fill:#000000" />
      <path
         inkscape:connector-curvature="0"
         id="path4287"
         d="m 202.01246,579.39532 c 2.35335,-0.65433 2.26536,-0.76503 -1.5,-1.88718 -10.07119,-3.0014 -20.45709,-2.16523 -17.49139,1.40823 1.93203,2.32794 11.47573,2.56863 18.99139,0.47895 z"
         style="fill:#ffffff" />
      <path
         inkscape:connector-curvature="0"
         id="path4285"
         d="m 256.51246,542.43938 c 12.67846,-5.83753 23.99401,-16.8972 23.31591,-22.78865 -1.11306,-9.67054 -20.74423,4.50807 -33.31619,24.06261 l -1.80489,2.80735 2.90258,-0.65937 c 1.59643,-0.36265 5.60259,-1.90252 8.90259,-3.42194 z"
         style="fill:#ffffff" />
    </g>
  </g>
</svg>
