<?xml version="1.0" encoding="UTF-8" standalone="no"?>
<!-- Created with Inkscape (http://www.inkscape.org/) -->

<svg
   xmlns:dc="http://purl.org/dc/elements/1.1/"
   xmlns:cc="http://creativecommons.org/ns#"
   xmlns:rdf="http://www.w3.org/1999/02/22-rdf-syntax-ns#"
   xmlns:svg="http://www.w3.org/2000/svg"
   xmlns="http://www.w3.org/2000/svg"
   xmlns:sodipodi="http://sodipodi.sourceforge.net/DTD/sodipodi-0.dtd"
   xmlns:inkscape="http://www.inkscape.org/namespaces/inkscape"
   width="500"
   height="500"
   id="svg2"
   version="1.1"
   inkscape:version="0.48.2 r9819"
   sodipodi:docname="marker2.svg">
  <defs
     id="defs4">
    <filter
       id="filter3790"
       inkscape:label="Diffuse light"
       inkscape:menu="ABCs"
       inkscape:menu-tooltip="Basic diffuse bevel to use for building textures"
       color-interpolation-filters="sRGB">
      <feGaussianBlur
         id="feGaussianBlur3792"
         stdDeviation="6"
         in="SourceGraphic"
         result="result0" />
      <feDiffuseLighting
         id="feDiffuseLighting3794"
         diffuseConstant="1"
         surfaceScale="10"
         result="result5">
        <feDistantLight
           id="feDistantLight3796"
           elevation="25"
           azimuth="235" />
      </feDiffuseLighting>
      <feComposite
         id="feComposite3798"
         in2="SourceGraphic"
         k1="1"
         in="result5"
         result="fbSourceGraphic"
         operator="arithmetic"
         k2="0"
         k3="0.6" />
      <feColorMatrix
         result="fbSourceGraphicAlpha"
         in="fbSourceGraphic"
         values="0 0 0 -1 0 0 0 0 -1 0 0 0 0 -1 0 0 0 0 1 0"
         id="feColorMatrix3800" />
      <feGaussianBlur
         id="feGaussianBlur3802"
         result="result0"
         in="fbSourceGraphicAlpha"
         stdDeviation="6" />
      <feSpecularLighting
         id="feSpecularLighting3804"
         specularExponent="25"
         specularConstant="1"
         surfaceScale="10"
         lighting-color="rgb(255,255,255)"
         result="result1"
         in="result0">
        <feDistantLight
           id="feDistantLight3806"
           azimuth="235"
           elevation="45" />
      </feSpecularLighting>
      <feComposite
         id="feComposite3808"
         in2="result91"
         k3="1"
         k2="1"
         operator="arithmetic"
         result="result4"
         in="fbSourceGraphic" />
      <feComposite
         id="feComposite3810"
         in2="fbSourceGraphicAlpha"
         operator="in"
         result="fbSourceGraphic"
         in="result4" />
      <feColorMatrix
         result="fbSourceGraphicAlpha"
         in="fbSourceGraphic"
         values="0 0 0 -1 0 0 0 0 -1 0 0 0 0 -1 0 0 0 0 1 0"
         id="feColorMatrix3812" />
      <feGaussianBlur
         id="feGaussianBlur3814"
         stdDeviation="6"
         in="fbSourceGraphic"
         result="result0" />
      <feDiffuseLighting
         id="feDiffuseLighting3816"
         diffuseConstant="1"
         surfaceScale="10"
         result="result5">
        <feDistantLight
           id="feDistantLight3818"
           elevation="25"
           azimuth="235" />
      </feDiffuseLighting>
      <feComposite
         id="feComposite3820"
         in2="fbSourceGraphic"
         k1="1"
         in="result5"
         result="result4"
         operator="arithmetic"
         k2="0"
         k3="0.6" />
    </filter>
  </defs>
  <sodipodi:namedview
     id="base"
     pagecolor="#ffffff"
     bordercolor="#666666"
     borderopacity="1.0"
     inkscape:pageopacity="0.0"
     inkscape:pageshadow="2"
     inkscape:zoom="0.35"
     inkscape:cx="-101.40703"
     inkscape:cy="517.7988"
     inkscape:document-units="px"
     inkscape:current-layer="layer1"
     showgrid="false"
     inkscape:window-width="1280"
     inkscape:window-height="657"
     inkscape:window-x="-8"
     inkscape:window-y="-8"
     inkscape:window-maximized="1" />
  <metadata
     id="metadata7">
    <rdf:RDF>
      <cc:Work
         rdf:about="">
        <dc:format>image/svg+xml</dc:format>
        <dc:type
           rdf:resource="http://purl.org/dc/dcmitype/StillImage" />
        <dc:title></dc:title>
      </cc:Work>
    </rdf:RDF>
  </metadata>
  <g
     inkscape:label="Livello 1"
     inkscape:groupmode="layer"
     id="layer1"
     transform="translate(0,-552.36218)">
    <rect
       style="fill:#c8a44c;fill-opacity:1;fill-rule:evenodd;stroke:#747474;stroke-width:2.67766452;stroke-miterlimit:4;stroke-opacity:1;stroke-dasharray:none;filter:url(#filter3790)"
       id="rect2996"
       width="504.21329"
       height="507.52161"
       x="2.1790464"
       y="550.98389" />
    <path
       style="fill:#000000;fill-opacity:1"
       d="m 291.27423,969.06717 c -2.29544,-2.19234 -0.8095,-7.07626 3.82551,-12.57352 4.91314,-5.82712 14.00445,-11.82295 28.29407,-18.6603 6.09017,-2.91403 6.76668,-3.39516 9.08187,-6.45897 2.65029,-3.50727 2.61968,-3.8364 -0.22637,-2.43381 -0.97829,0.48212 -2.91081,0.87659 -4.29448,0.87659 -3.49149,0 -4.94804,-1.70126 -4.94804,-5.77932 0,-1.60077 0.21604,-3.58069 0.48009,-4.39984 0.38427,-1.19212 -0.40831,-0.64571 -3.97126,2.73782 -6.04679,5.74229 -8.82883,7.44134 -12.18453,7.44134 -3.47161,0 -4.63836,-1.25758 -4.63836,-4.99945 l 0,-2.66187 -2.84892,2.74805 c -3.79212,3.65787 -6.19732,4.88477 -9.60668,4.90043 -3.76911,0.0173 -4.93232,-1.11184 -5.25751,-5.10358 -0.20272,-2.48843 0.008,-3.6221 1.24095,-6.68337 2.87147,-7.12822 8.07458,-12.45448 17.57585,-17.99184 6.78367,-3.95353 11.74951,-5.59916 15.15371,-5.02179 1.2774,0.21665 4.38491,0.41542 6.90558,0.44171 2.52068,0.0263 4.58305,0.28639 4.58305,0.57801 0,0.29161 -3.70926,5.05601 -8.24282,10.58754 -11.85085,14.45959 -15.96557,20.86859 -13.39812,20.86859 1.56111,0 10.57653,-8.12973 16.84317,-15.18846 1.85758,-2.09236 3.86421,-3.96254 4.45919,-4.15593 0.59498,-0.1934 2.57072,-1.58114 4.39053,-3.08387 4.18252,-3.45374 12.57767,-8.20464 16.69699,-9.449 1.98354,-0.59918 4.01251,-0.82422 5.45011,-0.6045 1.2596,0.19252 4.58511,0.37299 7.39001,0.40103 4.66327,0.0466 5.04498,0.13349 4.45918,1.0146 -0.35235,0.52997 -5.8516,7.61697 -12.22055,15.74888 -6.36894,8.13191 -11.48603,14.89602 -11.3713,15.03134 0.71083,0.83841 13.21563,-9.45717 18.73976,-15.429 1.49878,-1.62025 3.0263,-2.95485 3.39449,-2.96578 0.3682,-0.0109 2.26335,-1.76696 4.21145,-3.90228 6.35863,-6.96971 10.4616,-10.28459 13.09979,-10.58358 2.96691,-0.33625 4.1983,0.99895 4.15725,4.50772 -0.0152,1.29864 0.0881,2.36116 0.22953,2.36116 0.14144,0 1.18652,-0.87639 2.3224,-1.94753 3.62786,-3.42109 5.67928,-4.58071 8.66912,-4.90048 2.51838,-0.26935 3.02973,-0.13701 4.24853,1.09953 1.04153,1.05668 1.38558,1.92999 1.38558,3.51706 0,4.52652 -1.45237,7.16544 -9.18946,16.69708 -3.06473,3.77557 -6.06345,7.62332 -6.66384,8.55056 -1.24455,1.92211 -1.41146,3.28145 -0.40291,3.28145 1.61274,0 9.94276,-8.24087 16.3971,-16.22161 1.82513,-2.25677 2.84653,-3.07153 3.84621,-3.06806 0.83309,0.003 2.50416,-0.98776 4.30747,-2.55355 3.39583,-2.94855 10.71144,-7.31706 15.38865,-9.1893 4.44759,-1.78033 10.5317,-1.90222 11.6043,-0.23248 1.00974,1.57187 0.96501,3.14583 -0.15072,5.30389 -2.05297,3.97087 -7.88388,7.02784 -18.88556,9.90109 -5.44232,1.42135 -5.78192,1.59862 -7.57267,3.95281 -2.56253,3.36882 -4.80369,7.98 -4.8093,9.89517 -0.0204,6.95629 13.20614,-0.62296 26.96775,-15.45344 0.97677,-1.05263 3.74642,-1.44758 3.74642,-0.53422 0,0.90777 -9.56348,10.04767 -14.82696,14.17027 -5.60553,4.39049 -9.94475,6.367 -13.9781,6.367 -6.3058,0 -8.75535,-4.434 -6.43266,-11.64397 l 0.93121,-2.89061 -4.77106,5.01607 c -6.95388,7.31099 -9.41951,9.10447 -12.92806,9.40381 -3.62682,0.30942 -4.97282,-0.93126 -4.97282,-4.58373 0,-3.83972 1.7005,-6.74047 9.50861,-16.21996 6.87973,-8.35238 8.54644,-10.84499 7.99297,-11.95369 -1.42,-2.84453 -14.14017,9.08411 -26.17222,24.54362 l -5.94558,7.63924 -4.63359,0.0524 -4.63359,0.0524 9.23434,-11.18836 c 9.59178,-11.62147 15.14452,-19.22286 15.14452,-20.73203 0,-1.22535 -3.38327,1.72016 -8.9301,7.77466 -2.44925,2.67342 -4.66933,4.86076 -4.93351,4.86076 -0.26418,0 -2.77118,2.26344 -5.57111,5.02986 -6.13443,6.06099 -12.23734,10.88575 -18.79542,14.85902 -3.58773,2.17366 -5.48877,3.75913 -7.19033,5.99673 -5.25012,6.90403 -16.09044,19.04061 -19.7902,22.15667 -9.76056,8.22065 -17.09793,12.12766 -22.80332,12.14233 -2.22044,0.006 -3.34513,-0.28193 -4.16528,-1.06525 z m 8.04578,-1.89331 c 5.03339,-2.34007 9.38676,-6.38412 18.43588,-17.12595 4.87842,-5.79097 8.6485,-10.61606 8.37795,-10.72243 -1.10495,-0.43442 -13.8563,6.68629 -20.86201,11.64993 -8.38247,5.93909 -13.79861,13.87933 -11.39837,16.71038 0.86267,1.01751 2.48472,0.86505 5.44655,-0.51193 z m -6.61084,-40.23398 c 5.05115,-3.03942 18.63639,-17.06748 23.43931,-24.20335 1.80547,-2.68246 2.42893,-5.19347 1.46413,-5.89678 -0.89869,-0.65511 -7.40499,3.85017 -12.44255,8.61582 -9.30303,8.80089 -16.08431,18.53153 -15.07552,21.63226 0.39414,1.21142 0.3515,1.21384 2.61463,-0.14795 z m 44.41837,-4.99994 c 7.485,-7.09033 14.9858,-15.50903 17.66168,-19.82301 1.39176,-2.24376 1.83579,-4.6491 0.97418,-5.27718 -0.69306,-0.50521 -6.89964,3.4337 -10.70842,6.79594 -1.90754,1.6839 -5.96446,5.96537 -9.01537,9.51438 -4.20022,4.88596 -5.86533,7.27256 -6.85762,9.82904 -1.03573,2.66838 -1.18721,3.55151 -0.72248,4.21198 0.50312,0.71503 0.92099,0.63343 2.8939,-0.56504 1.26823,-0.7704 3.86659,-2.87915 5.77413,-4.68611 z m 91.56561,-16.50931 c 5.37498,-3.33036 9.77226,-8.92385 7.01542,-8.92385 -1.97343,0 -13.35574,8.95007 -16.32062,12.83314 -0.96023,1.25761 -0.91766,1.25381 2.38574,-0.21275 1.84989,-0.82127 4.96364,-2.48471 6.91946,-3.69654 z m -208.62744,57.04845 c 0.0727,-0.22807 6.03508,-7.73605 13.24981,-16.6844 16.02339,-19.87364 19.3039,-24.02272 18.34433,-23.20129 -0.40875,0.34992 -1.85799,1.63152 -3.22052,2.84802 -3.5009,3.12567 -6.03436,4.34807 -9.04223,4.36291 -3.36683,0.0166 -4.59251,-1.27564 -4.56066,-4.8084 0.0358,-3.96896 1.72295,-6.80994 9.76304,-16.43973 4.83119,-5.78642 7.55584,-9.48525 7.55584,-10.25739 0,-1.81876 -1.43412,-1.50873 -4.75397,1.02771 -4.69937,3.59044 -8.77628,7.80807 -18.56033,19.20096 l -9.19356,10.70529 -4.34702,0 -4.34702,0 9.41343,-11.54175 c 5.17739,-6.34796 10.33035,-12.85663 11.45102,-14.46371 1.97126,-2.82682 2.92286,-5.24862 2.33487,-5.94214 -1.23056,-1.45142 -15.00882,12.50405 -26.78191,27.12637 l -3.88181,4.82123 -4.48118,0 -4.48119,0 9.37,-11.24955 c 11.60666,-13.93489 16.20676,-20.30764 14.65883,-20.30764 -0.73063,0 -4.57968,3.43846 -8.58513,7.66934 -2.08255,2.19975 -4.31214,4.24857 -4.95465,4.55294 -0.64251,0.30437 -3.62075,3.10158 -6.61832,6.21603 -10.70789,11.12543 -14.17041,13.70328 -18.40599,13.70328 -3.46595,0 -4.63312,-1.25946 -4.63312,-4.99945 l 0,-2.66187 -2.84892,2.74805 c -3.79213,3.65787 -6.19732,4.88477 -9.60668,4.90043 -3.65269,0.0168 -4.89183,-1.11545 -5.24304,-4.79064 -0.14254,-1.49159 -0.0206,-3.51928 0.27106,-4.50598 0.29162,-0.9867 0.43972,-1.794 0.32912,-1.794 -0.11062,0 -2.14742,1.84186 -4.52624,4.09303 -5.56722,5.26848 -8.51458,7.01043 -11.86157,7.01043 -3.58498,0 -4.92807,-1.33995 -4.86598,-4.85459 0.07,-3.96363 1.94624,-7.12081 10.16899,-17.11176 6.97866,-8.47933 8.37867,-10.75963 6.60593,-10.75963 -3.2479,0 -12.98458,9.62151 -24.27496,23.98782 l -6.86726,8.73816 -3.90487,0 c -2.27452,0 -3.83591,-0.23382 -3.73971,-0.56002 0.29332,-0.99464 18.5665,-24.92507 33.98202,-44.50264 l 15.00577,-19.05719 4.32564,-0.3206 c 2.3791,-0.17632 4.40856,-0.22485 4.5099,-0.10783 0.24541,0.28339 -4.12893,5.87346 -15.7914,20.18017 -5.31386,6.51868 -9.21565,11.63788 -8.67064,11.37601 5.98839,-2.87734 9.0669,-2.78539 10.42461,0.31137 1.86978,4.26473 0.0702,8.13805 -8.91859,19.19566 -3.88343,4.77724 -7.18359,9.23976 -7.33367,9.91669 -0.86493,3.90113 6.72603,-1.74696 15.73695,-11.70915 4.17799,-4.61905 5.92252,-6.32592 6.47542,-6.33566 0.29142,-0.005 1.74066,-1.08255 3.22053,-2.39425 3.76085,-3.33348 13.62959,-8.9734 17.82217,-10.18525 2.35464,-0.6806 4.27491,-0.88496 5.83282,-0.62073 1.27739,0.21665 4.3849,0.41542 6.90558,0.44171 2.52068,0.0263 4.58305,0.28639 4.58305,0.57801 0,0.29161 -3.70927,5.05601 -8.24282,10.58754 -11.85085,14.45959 -15.96558,20.86859 -13.39812,20.86859 1.56331,0 10.59491,-8.14637 16.83893,-15.18846 1.85524,-2.09236 3.90059,-3.93579 4.54522,-4.0965 0.64462,-0.1607 2.13665,-1.3457 3.31561,-2.63333 3.39998,-3.71335 6.89852,-7.00358 9.54867,-8.9801 4.33632,-3.2341 8.20203,-2.02973 8.20203,2.55535 0,1.12496 0.11444,2.04537 0.25431,2.04537 0.13986,0 1.91003,-1.35767 3.9337,-3.01704 3.0454,-2.49717 4.13371,-3.06148 6.31596,-3.27493 3.52564,-0.34485 4.97531,0.94618 5.16404,4.59893 0.073,1.4133 0.14494,2.66659 0.15982,2.78509 0.0149,0.11851 0.76411,-0.44763 1.66497,-1.25807 5.69385,-5.12239 9.06437,-6.76506 12.37695,-6.03208 1.34057,0.29663 2.03887,0.8658 2.58197,2.10455 1.94228,4.43009 0.1504,8.30939 -8.89903,19.26583 -6.86875,8.31622 -8.49368,11.12539 -6.43535,11.12539 2.00145,0 10.07848,-7.51014 19.59457,-18.2193 0.47881,-0.53886 1.41265,-1.06481 2.07519,-1.16879 0.82436,-0.12938 4.77887,-4.61645 12.5274,-14.21448 l 11.32277,-14.02542 4.11971,-0.0446 c 2.26584,-0.0245 4.0583,0.15602 3.98324,0.40124 -0.0751,0.24522 -2.74169,3.70948 -5.92583,7.69836 l -5.78935,7.25251 2.37272,-0.26891 c 2.94697,-0.33399 4.3667,0.51582 5.30989,3.17832 1.50491,4.24823 -1.32456,12.07838 -6.30952,17.46074 -4.60338,4.97036 -14.0394,11.34993 -19.7422,13.34744 -3.03629,1.06352 -7.49936,1.24443 -8.2702,0.33523 -0.57779,-0.68149 -2.89689,2.04568 -18.18129,21.38039 l -9.7245,12.30146 -4.23008,0 c -2.32655,0 -4.17063,-0.18661 -4.09797,-0.41468 z m -54.691,-35.5392 c 5.05115,-3.03942 18.63638,-17.06748 23.4393,-24.20335 1.80548,-2.68246 2.42894,-5.19347 1.46413,-5.89678 -0.89869,-0.65511 -7.40498,3.85017 -12.44255,8.61582 -9.30302,8.80089 -16.08431,18.53153 -15.07551,21.63226 0.39413,1.21142 0.3515,1.21384 2.61463,-0.14795 z m 97.68477,-0.63142 c 5.85583,-3.48657 16.77473,-15.0763 20.59159,-21.85668 0.95561,-1.69756 1.86978,-4.04816 2.03149,-5.22354 0.25908,-1.88305 0.17216,-2.13706 -0.73124,-2.13706 -2.91646,0 -22.46617,21.28802 -24.80641,27.01214 -0.97437,2.38326 -1.08052,3.96066 -0.26652,3.96066 0.12795,0 1.55943,-0.78998 3.18109,-1.75552 z M 78.580266,930.7733 c -1.31556,-0.43919 -3.31537,-1.56401 -4.44401,-2.49962 -9.26654,-7.6817 -7.2753,-23.96653 4.89813,-40.05824 l 2.72103,-3.59684 -4.09051,-1.39289 c -9.90459,-3.3727 -14.10109,-8.98615 -12.7942,-17.1142 1.78886,-11.1256 12.25845,-20.87924 26.0108,-24.23207 8.16348,-1.99026 17.657224,-1.75634 25.764174,0.6348 3.8112,1.12411 12.12246,5.88858 15.50824,8.89017 l 2.62616,2.32817 4.80582,-0.27036 c 5.85051,-0.32913 9.22561,0.56402 10.64388,2.81671 0.7146,1.13501 0.88502,2.00156 0.62965,3.20165 -0.34272,1.61061 -4.58295,7.05833 -6.38894,8.20832 -0.80039,0.50967 -0.84625,0.86072 -0.37435,2.86541 0.75848,3.22214 0.67242,8.67816 -0.17461,11.06924 -0.60477,1.70722 -0.96501,2.0266 -2.28585,2.0266 l -1.56793,0 0.42509,-2.77586 c 0.48846,-3.1897 0.57223,-9.23339 0.13511,-9.74811 -0.16253,-0.19138 -1.95644,0.5448 -3.98648,1.63596 -12.7912,6.87537 -32.02784,12.64119 -42.175124,12.64119 l -3.22449,0 -4.19777,5.20287 c -8.95441,11.0984 -13.91852,23.30534 -12.31069,30.2724 1.68315,7.29349 8.94761,10.08838 18.67005,7.18301 5.2625,-1.5726 13.825364,-6.68516 19.278524,-11.51048 14.98428,-13.2591 20.91483,-27.34437 13.11724,-31.15394 -1.21466,-0.59344 -2.07778,-0.60482 -4.16118,-0.0549 -6.9781,1.84192 -18.91015,11.00699 -22.628124,17.3808 l -1.44775,2.48191 2.05933,0.17993 c 1.213104,0.106 2.262754,0.56302 2.554354,1.11217 0.66411,1.25069 0.10367,3.62707 -1.31382,5.57077 -0.965364,1.32372 -1.657714,1.63359 -4.119384,1.8436 -3.51378,0.29979 -4.81649,-0.68601 -4.32839,-3.27544 1.08668,-5.765 5.90989,-12.8988 12.819434,-18.96068 7.56216,-6.63444 14.25974,-9.56091 20.68626,-9.03875 3.93262,0.31952 5.61988,1.43435 6.68843,4.41926 1.52952,4.27259 -1.07649,13.0494 -6.052,20.3826 -6.43292,9.48124 -18.09458,18.45477 -28.738354,22.11387 -5.49911,1.89047 -15.3579,2.51618 -19.23775,1.22096 z m 22.890154,-48.6104 c 6.2419,-1.07019 13.82641,-3.12546 20.51096,-5.55811 5.82514,-2.11991 16.42128,-7.32301 17.21735,-8.4544 0.7129,-1.01316 -1.11398,-5.21004 -3.94952,-9.0732 l -1.90933,-2.60129 -4.76945,1.90279 c -5.97104,2.38217 -12.67694,6.06156 -18.82206,10.32728 -4.83763,3.3581 -13.643164,10.8856 -15.351534,13.12342 -0.93849,1.22934 -0.93603,1.23637 0.43188,1.23637 0.75665,0 3.74542,-0.40629 6.641704,-0.90286 z m -14.653614,-3.35743 c 10.1924,-10.19839 24.157354,-18.28389 39.451834,-22.84204 l 4.66831,-1.39127 -2.14422,-1.59654 c -3.1993,-2.38212 -8.54064,-4.91765 -13.85612,-6.57749 -4.07237,-1.27166 -5.80246,-1.47985 -12.41167,-1.49353 -6.957374,-0.0144 -8.096264,0.1333 -12.108354,1.5702 -9.75078,3.49217 -18.25611,10.44571 -20.58409,16.82853 -1.4304,3.92185 -1.24389,8.69424 0.44507,11.38871 1.2681,2.02304 4.58096,4.34895 8.58524,6.02756 3.92911,1.6471 4.54233,1.49953 7.954,-1.91413 z m 59.269104,-16.52129 c 1.98963,-2.67277 1.85889,-4.29758 -0.45553,-5.66127 -1.80951,-1.0662 -8.4229,-1.48216 -8.4229,-0.52978 0,0.2716 0.46329,0.98834 1.02953,1.59276 0.56624,0.60442 1.81997,2.60941 2.78608,4.45556 1.98888,3.80057 2.33269,3.81027 5.06282,0.14273 z M 91.129236,801.94374 c -11.54883,-3.56048 -18.73375,-16.79443 -17.63101,-32.47466 0.60973,-8.67009 3.09123,-14.83009 8.23834,-20.4507 6.75183,-7.37296 16.43569,-9.42256 23.959934,-5.07115 1.66196,0.96115 3.48462,2.15243 4.05035,2.64728 0.98522,0.86181 1.0776,0.77637 2.19042,-2.02599 0.89287,-2.24846 1.42192,-2.92574 2.28542,-2.92574 1.38049,0 1.51652,1.02459 1.92033,14.46372 l 0.28533,9.49637 -1.4825,0 c -1.32846,0 -1.53902,-0.25805 -2.02655,-2.48366 -0.93807,-4.28246 -1.07999,-4.75346 -2.28244,-7.57553 -3.4782,-8.16309 -10.41439,-11.86908 -16.306274,-8.71239 -2.92391,1.56654 -5.91162,5.88242 -7.2613,10.48925 -1.03262,3.52459 -1.14243,4.93854 -1.14243,14.71065 0,9.542 0.1292,11.29564 1.10048,14.9371 1.48741,5.57654 3.52405,8.75927 6.73262,10.52129 8.307634,4.5622 17.690634,-1.66618 20.197074,-13.40672 0.51873,-2.42983 0.72021,-2.70139 2.00427,-2.70139 1.71313,0 1.74735,0.40895 0.44908,5.36669 -3.27273,12.49767 -13.70098,18.76571 -25.281144,15.19558 z m 29.727904,-1.86171 c 0,-1.55801 0.16531,-1.75318 1.48496,-1.75318 0.9927,0 2.10275,-0.6583 3.34856,-1.98582 1.64454,-1.75241 2.9666,-5.08382 11.24788,-28.34304 l 9.3843,-26.35721 1.75949,10e-4 1.7595,10e-4 9.65123,27.02677 c 5.30818,14.86472 10.14741,27.61847 10.75384,28.34165 0.73106,0.8718 1.69455,1.31488 2.85926,1.31488 1.62152,0 1.75664,0.13486 1.75664,1.75318 l 0,1.75318 -11.64342,0 -11.64342,0 0,-1.75318 c 0,-1.69198 0.0789,-1.75318 2.26216,-1.75318 2.80839,0 4.17863,-0.82096 4.1797,-2.50422 4.6e-4,-0.71188 -0.92696,-3.85835 -2.06092,-6.99215 l -2.06176,-5.69783 -9.36203,0 -9.36202,0 -1.23917,3.30489 c -1.6507,4.40245 -1.92115,6.28286 -1.19925,8.33846 0.68451,1.94919 3.12782,3.55085 5.41675,3.55085 1.37567,0 1.53538,0.18237 1.53538,1.75318 l 0,1.75318 -9.41383,0 -9.41383,0 0,-1.75318 z m 31.62717,-20.98137 c -1.32166,-4.22241 -7.67514,-21.65694 -7.89567,-21.66643 -0.30165,-0.013 -7.89539,20.94394 -7.8832,21.75577 0.003,0.24106 3.5925,0.43829 7.9753,0.43829 4.53266,0 7.89751,-0.22751 7.80357,-0.52763 z m 23.86489,20.98137 c 0,-1.59931 0.14577,-1.75318 1.66086,-1.75318 2.08463,0 4.66619,-2.01505 5.99205,-4.67713 0.9661,-1.93973 1.02549,-3.09151 1.17078,-22.70526 0.14261,-19.25103 0.0919,-20.74152 -0.74203,-21.82844 -1.38001,-1.7986 -3.3757,-2.8001 -5.57973,-2.8001 -1.8991,0 -2.00647,-0.0938 -2.00647,-1.75318 l 0,-1.75317 7.8201,0 7.8201,0 13.60876,20.29378 13.60875,20.29378 0.14956,-12.84278 c 0.0822,-7.06353 0.009,-14.23786 -0.16293,-15.94297 -0.40289,-3.99732 -2.42663,-6.88493 -5.506,-7.85636 -1.89647,-0.59827 -2.16033,-0.88084 -2.16033,-2.31348 l 0,-1.63197 9.1661,0 9.1661,0 0,1.61601 c 0,1.4134 -0.31374,1.74743 -2.50242,2.66431 -4.57913,1.91826 -4.4301,0.9176 -4.43224,29.76054 l -0.002,24.98278 -2.10573,-0.0318 -2.10572,-0.0319 -14.86395,-22.51114 c -8.17517,-12.38113 -15.14264,-22.78657 -15.48327,-23.12319 -0.49316,-0.48736 -0.61687,2.76604 -0.60722,15.96858 0.007,9.30522 0.23746,17.73456 0.52567,19.21041 0.76934,3.93951 3.67126,7.01271 6.62185,7.01271 1.07332,0 1.26327,0.26361 1.26327,1.75318 l 0,1.75318 -10.15703,0 -10.15703,0 0,-1.75318 z m 58.46485,0 c 0,-1.75083 0.004,-1.75318 2.9374,-1.75318 4.80356,0 4.49457,1.80933 4.49457,-26.31884 0,-27.97298 0.41498,-25.69209 -4.67434,-25.69209 -2.73372,0 -2.75763,-0.0152 -2.75763,-1.75318 l 0,-1.75317 21.74056,0 21.74055,0 0.33118,8.61979 c 0.18215,4.74088 0.44977,9.34297 0.59473,10.22686 0.2412,1.47081 0.13498,1.60708 -1.25277,1.60708 -1.24947,0 -1.57033,-0.28282 -1.82318,-1.60708 -1.75474,-9.18991 -3.66478,-12.60348 -8.08038,-14.44101 -2.70576,-1.12599 -13.41169,-1.27399 -14.32393,-0.19802 -0.42027,0.4957 -0.59456,3.92192 -0.59456,11.68785 l 0,10.98658 2.36119,0 c 4.50438,0 7.73713,-3.42266 8.34599,-8.8363 0.29945,-2.66253 0.415,-2.85155 1.74327,-2.85155 l 1.42256,0 0,13.73322 0,13.73323 -1.41738,0 c -1.335,0 -1.43476,-0.1731 -1.71644,-2.97837 -0.58699,-5.84576 -3.06705,-8.7798 -7.75974,-9.18016 l -2.97945,-0.25419 0,12.02972 c 0,11.65897 0.0324,12.05016 1.05049,12.69283 0.67682,0.42724 3.18827,0.58762 7.06037,0.45088 5.52471,-0.19509 6.22005,-0.34893 8.61322,-1.90558 3.91052,-2.54362 6.36172,-6.96698 7.58309,-13.68417 0.50704,-2.78858 0.65604,-3.01489 1.98511,-3.01489 l 1.43692,0 -0.26565,9.20418 c -0.14611,5.0623 -0.37538,10.05886 -0.5095,11.10346 l -0.24385,1.89928 -22.5212,0 -22.5212,0 0,-1.75318 z m 53.01474,0 c 0,-1.75132 0.003,-1.75318 2.94469,-1.75318 4.71883,0 4.48728,1.34193 4.48728,-26.00546 0,-27.3474 0.23155,-26.00547 -4.48728,-26.00547 -2.94157,0 -2.94469,-0.002 -2.94469,-1.75318 l 0,-1.75317 12.88208,0 12.88209,0 0,1.75317 0,1.75318 -3.14373,0 c -5.10637,0 -4.78371,-1.76424 -4.78371,26.15584 0,21.05574 0.096,24.13171 0.77859,24.93676 0.61841,0.72941 1.96227,0.91833 6.53234,0.91833 4.80413,0 6.10308,-0.19945 7.87028,-1.20848 3.66628,-2.09337 6.06525,-6.1113 8.11336,-13.58877 1.00742,-3.67799 1.15576,-3.90331 2.56966,-3.90331 l 1.50052,0 -0.29148,3.06806 c -0.16032,1.68744 -0.43905,6.68399 -0.61941,11.10346 l -0.32794,8.0354 -21.98133,0 -21.98132,0 0,-1.75318 z m 50.04195,0 c 0,-1.75132 0.003,-1.75318 2.94469,-1.75318 4.71883,0 4.48728,1.34193 4.48728,-26.00546 0,-27.3474 0.23155,-26.00547 -4.48728,-26.00547 -2.94157,0 -2.94469,-0.002 -2.94469,-1.75318 l 0,-1.75317 12.88208,0 12.88209,0 0,1.75317 0,1.75318 -3.14373,0 c -5.10638,0 -4.78371,-1.76424 -4.78371,26.15584 0,21.05574 0.096,24.13171 0.77859,24.93676 0.61841,0.72941 1.96227,0.91833 6.53234,0.91833 4.80413,0 6.10308,-0.19945 7.87028,-1.20848 3.66628,-2.09337 6.06524,-6.1113 8.11336,-13.58877 1.00742,-3.67799 1.15576,-3.90331 2.56966,-3.90331 l 1.50052,0 -0.29149,3.06806 c -0.16031,1.68744 -0.43904,6.68399 -0.61941,11.10346 l -0.32793,8.0354 -21.98133,0 -21.98132,0 0,-1.75318 z m 49.54648,0 c 0,-1.74677 0.0105,-1.75318 2.87809,-1.75318 5.16604,0 4.80162,1.97371 4.80162,-26.00546 0,-27.97918 0.36442,-26.00547 -4.80162,-26.00547 -2.86757,0 -2.87809,-0.006 -2.87809,-1.75318 l 0,-1.75317 12.88209,0 12.88208,0 0,1.75317 0,1.75318 -3.12143,0 c -1.76716,0 -3.37938,0.30425 -3.71598,0.70127 -0.44368,0.52331 -0.59456,6.96918 -0.59456,25.40052 0,28.22012 -0.41693,25.90914 4.67434,25.90914 2.73373,0 2.75763,0.0152 2.75763,1.75318 l 0,1.75318 -12.88208,0 -12.88209,0 0,-1.75318 z M 109.34881,705.70789 c -8.13945,-2.43443 -14.620014,-9.64871 -16.897494,-18.8106 -1.22038,-4.90933 -1.47799,-11.56615 -0.65615,-16.95485 3.18516,-20.88472 22.747814,-31.65422 35.985534,-19.81051 l 1.72118,1.53993 1.38341,-3.22692 c 1.08452,-2.5297 1.6341,-3.22691 2.54362,-3.22691 1.12825,0 1.16933,0.1811 1.49148,6.57441 0.18219,3.61593 0.46888,8.87546 0.63707,11.68785 l 0.3058,5.11343 -1.47906,0 c -1.31091,0 -1.55069,-0.28235 -2.1092,-2.48366 -1.06979,-4.21652 -3.44858,-9.18574 -5.62385,-11.74805 -6.48215,-7.63555 -15.8624,-6.36977 -20.39468,2.75206 -2.48667,5.00475 -3.64427,15.85322 -2.79306,26.17524 0.8323,10.09275 3.06158,15.26215 7.67418,17.79537 4.36893,2.39941 9.75498,1.70193 13.02741,-1.687 2.29672,-2.37848 3.07041,-4.62297 3.45806,-10.03179 0.2527,-3.52608 0.15464,-4.64302 -0.51313,-5.84509 -0.74363,-1.33862 -1.14389,-1.48605 -4.03462,-1.48605 l -3.2091,0 0,-1.75318 0,-1.75317 12.13888,0 12.13889,0 0,1.75317 c 0,1.71084 -0.059,1.75318 -2.44193,1.75318 -3.97629,0 -3.99911,0.0753 -3.99911,13.19057 l 0,11.35391 -1.23313,0 c -1.04503,0 -1.53714,-0.71315 -3.22605,-4.67514 -1.09611,-2.57132 -2.05585,-4.67514 -2.13275,-4.67514 -0.0769,0 -1.47785,1.53474 -3.11322,3.41053 -1.97482,2.26514 -3.79795,3.75241 -5.42862,4.42856 -3.36228,1.39415 -9.67663,1.69975 -13.22036,0.63985 z m 170.05708,-0.18891 c -11.54884,-3.56047 -18.73376,-16.79443 -17.63102,-32.47466 0.60973,-8.67008 3.09123,-14.83009 8.23834,-20.4507 6.75183,-7.37296 16.43569,-9.42256 23.95993,-5.07114 1.66196,0.96114 3.48462,2.15242 4.05035,2.64728 0.98522,0.8618 1.0776,0.77636 2.19042,-2.02599 0.89287,-2.24847 1.42192,-2.92574 2.28542,-2.92574 1.38049,0 1.51652,1.02458 1.92033,14.46371 l 0.28533,9.49638 -1.4825,0 c -1.32846,0 -1.53902,-0.25806 -2.02655,-2.48367 -0.93808,-4.28246 -1.07999,-4.75346 -2.28244,-7.57553 -3.4782,-8.16309 -10.41439,-11.86907 -16.30627,-8.71238 -2.9239,1.56654 -5.91162,5.88241 -7.2613,10.48924 -1.03262,3.52459 -1.14243,4.93854 -1.14243,14.71065 0,9.542 0.1292,11.29564 1.10048,14.9371 1.48741,5.57655 3.52405,8.75927 6.73263,10.52129 8.30762,4.56221 17.69062,-1.66618 20.19705,-13.40672 0.51874,-2.42983 0.72022,-2.70139 2.00428,-2.70139 1.71313,0 1.74735,0.40896 0.44908,5.36669 -3.27274,12.49768 -13.70098,18.76571 -25.28113,15.19558 z m -134.76644,-1.86171 c 0,-1.55801 0.16531,-1.75318 1.48497,-1.75318 0.99269,0 2.10274,-0.6583 3.34855,-1.98582 1.64454,-1.75241 2.96661,-5.08382 11.24788,-28.34303 l 9.3843,-26.35721 1.7595,10e-4 1.75949,10e-4 9.65124,27.02677 c 5.30817,14.86472 10.1474,27.61847 10.75383,28.34165 0.73106,0.87181 1.69456,1.31489 2.85926,1.31489 1.62152,0 1.75665,0.13486 1.75665,1.75317 l 0,1.75318 -11.64343,0 -11.64342,0 0,-1.75318 c 0,-1.69198 0.079,-1.75317 2.26216,-1.75317 2.80839,0 4.17863,-0.82097 4.1797,-2.50423 4.6e-4,-0.71188 -0.92696,-3.85835 -2.06092,-6.99215 l -2.06176,-5.69783 -9.36203,0 -9.36202,0 -1.23917,3.30489 c -1.6507,4.40245 -1.92114,6.28286 -1.19925,8.33846 0.68452,1.94919 3.12782,3.55086 5.41675,3.55086 1.37567,0 1.53538,0.18236 1.53538,1.75317 l 0,1.75318 -9.41383,0 -9.41383,0 0,-1.75318 z m 31.62717,-20.98137 c -1.32165,-4.22241 -7.67513,-21.65694 -7.89566,-21.66643 -0.30165,-0.013 -7.89539,20.94394 -7.88321,21.75577 0.003,0.24106 3.5925,0.4383 7.9753,0.4383 4.53266,0 7.89751,-0.22752 7.80357,-0.52764 z m 23.86489,20.98137 c 0,-1.5993 0.14577,-1.75318 1.66086,-1.75318 2.08464,0 4.6662,-2.01505 5.99206,-4.67712 0.96609,-1.93974 1.02548,-3.09152 1.17077,-22.70526 0.14261,-19.25104 0.0919,-20.74153 -0.74202,-21.82845 -1.38002,-1.7986 -3.3757,-2.80009 -5.57974,-2.80009 -1.8991,0 -2.00646,-0.0938 -2.00646,-1.75318 l 0,-1.75318 7.8201,0 7.82009,0 13.60876,20.29378 13.60875,20.29378 0.14956,-12.84277 c 0.0822,-7.06353 0.009,-14.23787 -0.16292,-15.94297 -0.4029,-3.99732 -2.42664,-6.88494 -5.50601,-7.85637 -1.89647,-0.59827 -2.16033,-0.88084 -2.16033,-2.31348 l 0,-1.63197 9.1661,0 9.1661,0 0,1.61601 c 0,1.4134 -0.31374,1.74744 -2.50242,2.66431 -4.57913,1.91827 -4.4301,0.91761 -4.43224,29.76054 l -0.002,24.98278 -2.10573,-0.0318 -2.10572,-0.0319 -14.86395,-22.51114 c -8.17517,-12.38115 -15.14264,-22.78659 -15.48327,-23.12322 -0.49315,-0.48736 -0.61687,2.76605 -0.60722,15.96859 0.007,9.30522 0.23746,17.73456 0.52567,19.2104 0.76934,3.93951 3.67126,7.01271 6.62185,7.01271 1.07332,0 1.26327,0.26362 1.26327,1.75318 l 0,1.75318 -10.15703,0 -10.15703,0 0,-1.75318 z m 112.47052,0 c 0,-1.74676 0.0105,-1.75318 2.87809,-1.75318 5.16604,0 4.80161,1.97371 4.80161,-26.00546 0,-27.97918 0.36443,-26.00546 -4.80161,-26.00546 -2.86757,0 -2.87809,-0.006 -2.87809,-1.75318 l 0,-1.75318 12.88209,0 12.88208,0 0,1.75318 0,1.75318 -3.12143,0 c -1.76716,0 -3.37938,0.30425 -3.71598,0.70127 -0.44368,0.52331 -0.59456,6.96918 -0.59456,25.40051 0,28.22012 -0.41693,25.90914 4.67434,25.90914 2.73373,0 2.75763,0.0152 2.75763,1.75318 l 0,1.75318 -12.88208,0 -12.88209,0 0,-1.75318 z m 27.25057,0 c 0,-1.55801 0.16531,-1.75318 1.48496,-1.75318 0.9927,0 2.10275,-0.6583 3.34856,-1.98582 1.64453,-1.75241 2.9666,-5.08382 11.24788,-28.34303 l 9.3843,-26.35721 1.75949,10e-4 1.7595,10e-4 9.65123,27.02677 c 5.30818,14.86472 10.14741,27.61847 10.75384,28.34165 0.73106,0.87181 1.69455,1.31489 2.85926,1.31489 1.62152,0 1.75664,0.13486 1.75664,1.75317 l 0,1.75318 -11.64342,0 -11.64342,0 0,-1.75318 c 0,-1.69198 0.0789,-1.75317 2.26216,-1.75317 2.80839,0 4.17863,-0.82097 4.1797,-2.50423 4.6e-4,-0.71188 -0.92696,-3.85835 -2.06092,-6.99215 l -2.06176,-5.69783 -9.36203,0 -9.36202,0 -1.23917,3.30489 c -1.6507,4.40245 -1.92115,6.28286 -1.19925,8.33846 0.68451,1.94919 3.12782,3.55086 5.41675,3.55086 1.37567,0 1.53538,0.18236 1.53538,1.75317 l 0,1.75318 -9.41383,0 -9.41383,0 0,-1.75318 z m 31.62717,-20.98137 c -1.32166,-4.22241 -7.67514,-21.65694 -7.89567,-21.66643 -0.30165,-0.013 -7.89539,20.94394 -7.8832,21.75577 0.003,0.24106 3.5925,0.4383 7.9753,0.4383 4.53266,0 7.89751,-0.22752 7.80357,-0.52764 z"
       id="path2998"
       inkscape:connector-curvature="0" />
  </g>
</svg>
