# Blender v2.79 (sub 0) OBJ File: 't.blend'
# www.blender.org
mtllib t.mtl
o Text
v 0.000000 0.682000 -0.587000
v 0.000000 0.682000 -0.017000
v 0.000000 0.594000 -0.017000
v 0.000000 0.594000 -0.253000
v -0.000000 0.000000 -0.253000
v -0.000000 0.000000 -0.351000
v 0.000000 0.594000 -0.351000
v 0.000000 0.594000 -0.587000
v -0.050000 0.682000 -0.587000
v -0.050000 0.682000 -0.017000
v -0.050000 0.594000 -0.017000
v -0.050000 0.594000 -0.253000
v -0.050000 0.000000 -0.253000
v -0.050000 0.000000 -0.351000
v -0.050000 0.594000 -0.351000
v -0.050000 0.594000 -0.587000
vn 1.0000 -0.0000 -0.0000
vn 0.0000 1.0000 0.0000
vn 0.0000 -1.0000 0.0000
vn -1.0000 0.0000 0.0000
vn 0.0000 0.0000 1.0000
vn 0.0000 0.0000 -1.0000
usemtl Material.001
s off
f 3//1 1//1 2//1
f 3//1 8//1 1//1
f 4//2 8//2 3//2
f 5//1 7//1 4//1
f 7//3 8//3 4//3
f 5//1 6//1 7//1
f 11//4 10//4 9//4
f 11//4 9//4 16//4
f 12//5 11//5 16//5
f 13//4 12//4 15//4
f 15//5 12//5 16//5
f 13//4 15//4 14//4
f 6//3 5//3 13//3 14//3
f 7//6 6//6 14//6 15//6
f 8//3 7//3 15//3 16//3
f 5//5 4//5 12//5 13//5
f 2//2 1//2 9//2 10//2
f 1//6 8//6 16//6 9//6
f 3//5 2//5 10//5 11//5
f 4//3 3//3 11//3 12//3
